<?xml version="1.0" encoding="iso-8859-1"?>
<!-- Generator: Adobe Illustrator 19.0.0, SVG Export Plug-In . SVG Version: 6.00 Build 0)  -->
<svg version="1.1" id="Layer_1" xmlns="http://www.w3.org/2000/svg" xmlns:xlink="http://www.w3.org/1999/xlink" x="0px" y="0px"
	 viewBox="0 0 512 512" style="enable-background:new 0 0 512 512;" xml:space="preserve">
<path style="fill:#FFAD61;" d="M166.28,271.93c0,43.101-34.939,78.04-78.04,78.04s-78.04-34.94-78.04-78.04H166.28z"/>
<circle style="fill:#D35B38;" cx="88.244" cy="120.993" r="16.824"/>
<path style="fill:#FFAD61;" d="M501.801,198.667c0,43.101-34.939,78.04-78.04,78.04s-78.04-34.939-78.04-78.04L501.801,198.667
	L501.801,198.667z"/>
<circle style="fill:#D35B38;" cx="423.757" cy="47.727" r="16.824"/>
<g>
	<rect x="166.278" y="442.87" style="fill:#BCC987;" width="180.506" height="38.224"/>
	<rect x="203.444" y="406.775" style="fill:#BCC987;" width="106.174" height="36.1"/>
</g>
<rect x="239.538" y="108.418" style="fill:#FFE6B8;" width="33.974" height="298.357"/>
<circle style="fill:#D35B38;" cx="256.53" cy="84.154" r="28.503"/>
<g>
	<path style="fill:#4D3D36;" d="M501.801,188.468h-6.834c-6.659-33.785-40.813-93.27-55.933-118.465
		c7.089-4.876,11.749-13.041,11.749-22.276c0-14.9-12.123-27.023-27.023-27.023c-14.9,0-27.022,12.122-27.022,27.023
		c0,9.235,4.66,17.4,11.749,22.276c-15.119,25.195-49.273,84.68-55.932,118.465h-6.834c-5.632,0-10.199,4.566-10.199,10.199
		c0,48.655,39.584,88.239,88.239,88.239S512,247.323,512,198.667C512,193.034,507.433,188.468,501.801,188.468z M423.76,41.103
		c3.652,0,6.624,2.972,6.624,6.624s-2.972,6.623-6.624,6.623c-3.652,0-6.623-2.971-6.623-6.623S420.107,41.103,423.76,41.103z
		 M423.744,84.203c17.259,29.132,43.912,77.658,50.468,104.265H373.34C379.529,163.556,403.51,118.209,423.744,84.203z
		 M423.76,266.508c-33.941,0-62.142-25.055-67.076-57.642h134.153C485.902,241.453,457.703,266.508,423.76,266.508z"/>
	<path style="fill:#4D3D36;" d="M346.782,432.674h-26.964v-25.902c0-5.633-4.567-10.199-10.199-10.199h-25.902V111.67
		c6.671-6.594,10.968-15.585,11.466-25.562l43.126-9.28c5.507-1.185,9.011-6.61,7.826-12.117c-1.186-5.507-6.611-9.007-12.117-7.825
		l-43.227,9.303c-6.485-12.312-19.405-20.731-34.261-20.731c-20.573,0-37.441,16.136-38.628,36.416l-107.84,23.206
		c-4.92-6.729-12.867-11.111-21.822-11.111c-14.9,0-27.023,12.122-27.023,27.023c0,9.235,4.66,17.401,11.749,22.276
		c-15.12,25.195-49.273,84.68-55.932,118.465h-6.834C4.566,261.733,0,266.299,0,271.932c0,48.655,39.584,88.239,88.239,88.239
		s88.239-39.584,88.239-88.239c0-5.633-4.566-10.199-10.199-10.199h-6.834c-6.659-33.786-40.813-93.27-55.932-118.465
		c6.074-4.177,10.36-10.768,11.465-18.379l107.141-23.055c1.885,3.654,4.328,6.974,7.225,9.838v284.904h-25.901
		c-5.633,0-10.199,4.566-10.199,10.199v25.902H166.28c-5.633,0-10.199,4.566-10.199,10.199v38.221
		c0,5.633,4.566,10.199,10.199,10.199h180.502c5.632,0,10.199-4.566,10.199-10.199v-38.224
		C356.981,437.24,352.414,432.674,346.782,432.674z M256.531,65.854c10.093,0,18.303,8.21,18.303,18.303
		s-8.211,18.303-18.303,18.303c-10.092,0-18.303-8.21-18.303-18.303S246.438,65.854,256.531,65.854z M88.239,114.366
		c3.652,0,6.624,2.972,6.624,6.624s-2.972,6.623-6.624,6.623s-6.624-2.971-6.624-6.623S84.587,114.366,88.239,114.366z
		 M88.239,339.771c-33.942,0-62.142-25.055-67.076-57.642h134.152C150.381,314.716,122.181,339.771,88.239,339.771z M37.819,261.731
		c6.19-24.912,30.171-70.259,50.405-104.265c17.258,29.132,43.911,77.658,50.467,104.265H37.819z M249.742,122.251
		c2.206,0.393,4.472,0.609,6.79,0.609c2.317,0,4.583-0.216,6.789-0.608v274.322h-13.578V122.251z M299.42,416.971v15.703h-85.779
		v-15.703H299.42z M336.583,453.072v17.825H176.479v-17.825L336.583,453.072L336.583,453.072z"/>
	<path style="fill:#4D3D36;" d="M368.007,70.834c0.711,0,1.433-0.074,2.156-0.23l7.432-1.599c5.506-1.185,9.01-6.61,7.825-12.117
		c-1.185-5.507-6.611-9.01-12.118-7.825l-7.432,1.599c-5.506,1.185-9.01,6.61-7.825,12.117
		C359.076,67.564,363.304,70.834,368.007,70.834z"/>
</g>
<g>
</g>
<g>
</g>
<g>
</g>
<g>
</g>
<g>
</g>
<g>
</g>
<g>
</g>
<g>
</g>
<g>
</g>
<g>
</g>
<g>
</g>
<g>
</g>
<g>
</g>
<g>
</g>
<g>
</g>
</svg>
