<?xml version="1.0" encoding="iso-8859-1"?>
<!-- Generator: Adobe Illustrator 19.0.0, SVG Export Plug-In . SVG Version: 6.00 Build 0)  -->
<svg version="1.1" id="Capa_1" xmlns="http://www.w3.org/2000/svg" xmlns:xlink="http://www.w3.org/1999/xlink" x="0px" y="0px"
	 viewBox="0 0 511.999 511.999" style="enable-background:new 0 0 511.999 511.999;" xml:space="preserve">
<g>
	<g>
		<path d="M448.258,379.897c-1.869-1.86-4.439-2.929-7.068-2.929c-2.639,0-5.209,1.07-7.068,2.929
			c-1.87,1.859-2.929,4.439-2.929,7.068s1.06,5.209,2.929,7.068c1.859,1.859,4.429,2.929,7.068,2.929
			c2.629,0,5.209-1.07,7.068-2.929c1.859-1.86,2.929-4.439,2.929-7.068S450.118,381.756,448.258,379.897z"/>
	</g>
</g>
<g>
	<g>
		<path d="M505.679,492.69l-54.495-22.419V425.41c0-5.522-4.476-9.997-9.997-9.997s-9.997,4.476-9.997,9.997v36.635l-27.993-11.516
			V344.31c0-5.522-4.476-9.997-9.997-9.997s-9.997,4.476-9.997,9.997v97.993l-27.993-11.516V324.979h75.981v21.009
			c0,5.522,4.476,9.997,9.997,9.997s9.997-4.476,9.997-9.997v-30.889c0-0.019,0.003-0.037,0.003-0.055
			c0-0.021,0.003-0.041,0.003-0.062c0,0,0,0,0-0.001v-0.001l-0.012-74.007l57.276-101.063c2.319-4.093,3.545-8.742,3.545-13.446
			c0-11.899-7.286-22.042-18.562-25.842c-11.221-3.782-23.098-0.169-30.308,9.201l-15.89,19.588
			c0.045-0.383,0.073-0.771,0.073-1.166v-4.493c0-29.767-24.219-53.986-53.986-53.986c-4.203,0-8.29,0.499-12.22,1.412
			L355.568,46.61l29.482-29.481c2.859-2.859,3.714-7.16,2.166-10.895c-1.548-3.736-5.193-6.171-9.237-6.171h-89.05
			c-5.522,0-9.997,4.476-9.997,9.997v20.059h-22.866c-5.522,0-9.997,4.476-9.997,9.997v137.468c-2.961-1.01-6.13-1.566-9.43-1.566
			h-75.932c7.549-9.288,12.084-21.118,12.084-33.991v-12.044c0-0.294-0.019-0.583-0.044-0.871c0.025-0.288,0.044-0.577,0.044-0.869
			v-4.493c0-29.767-24.218-53.986-53.986-53.986s-53.986,24.218-53.986,53.986v4.493c0,0.294,0.019,0.582,0.044,0.87
			c-0.011,0.129-0.014,0.261-0.02,0.392l-15.967-19.684c-7.21-9.369-19.087-12.98-30.308-9.201
			C7.29,104.421,0.004,114.564,0.004,126.464c0,4.704,1.226,9.353,3.545,13.446l57.275,101.062l-0.006,229.271L6.2,492.689
			c-5.107,2.099-7.545,7.94-5.447,13.048c1.588,3.864,5.318,6.199,9.251,6.199c1.266,0,2.553-0.242,3.796-0.753l242.263-99.565
			l242.009,99.563c5.108,2.101,10.949-0.336,13.05-5.442C513.222,500.634,510.785,494.791,505.679,492.69z M393.326,89.76
			c16.87,0,30.908,12.352,33.547,28.487h-11.065c-11.37,0-22.078-4.998-29.381-13.711c-1.938-2.312-4.763-3.577-7.665-3.577
			c-1.144,0-2.297,0.196-3.414,0.603c-3.951,1.437-6.581,5.192-6.581,9.396c0,3.709-2.903,6.714-6.61,6.842l-2.313,0.08
			C362.632,101.924,376.584,89.76,393.326,89.76z M359.208,137.907l3.638-0.126c8.07-0.278,15.168-4.035,19.886-9.812
			c9.623,6.633,21.108,10.271,33.076,10.271h11.383v3.786c0,18.743-15.248,33.991-33.991,33.991s-33.991-15.248-33.991-33.991
			V137.907z M400.545,196.013l-7.413,23.805l-7.409-23.805H400.545z M353.844,20.058L334.221,39.68
			c-1.898,1.898-2.953,4.481-2.927,7.166c0.026,2.685,1.131,5.247,3.066,7.108l18.806,18.09h-54.238V20.058H353.844z
			 M266.063,120.098h55.712c5.522,0,9.997-4.476,9.997-9.997V92.04h17.902c-6.491,8.911-10.334,19.868-10.334,31.711v4.493
			c0,0.056,0.008,0.112,0.008,0.168c-0.081,0.513-0.135,1.035-0.135,1.572v12.044c0,12.874,4.536,24.704,12.084,33.991h-75.932
			c-3.252,0-6.377,0.541-9.303,1.523V120.098z M266.063,50.114h12.87v31.928c0,5.522,4.476,9.997,9.997,9.997h22.847v8.062h-45.714
			V50.114z M118.804,89.76c16.741,0,30.693,12.164,33.484,28.118l-2.313-0.08c-3.707-0.128-6.61-3.133-6.61-6.842
			c0-4.204-2.63-7.959-6.581-9.396c-3.95-1.436-8.378-0.248-11.079,2.974c-7.302,8.715-18.01,13.713-29.381,13.713H85.257
			C87.896,102.113,101.935,89.76,118.804,89.76z M84.813,138.241h11.51c11.968,0,23.453-3.639,33.076-10.271
			c4.718,5.777,11.816,9.534,19.886,9.812l3.511,0.121v4.125c0,18.743-15.249,33.991-33.991,33.991
			c-18.743,0-33.991-15.248-33.991-33.991V138.241z M126.216,196.013l-7.409,23.805l-7.413-23.805H126.216z M156.794,430.799
			l-27.993,11.504V344.31c0-5.522-4.476-9.997-9.997-9.997s-9.997,4.476-9.997,9.997v106.21l-27.993,11.504V324.979h75.981V430.799z
			 M156.787,235.005l0.011,69.978h-75.99l0.011-66.645c0-1.729-0.448-3.427-1.3-4.931L20.944,130.049
			c-0.619-1.092-0.946-2.332-0.946-3.586c0-4.849,3.79-6.502,4.952-6.894c1.162-0.392,5.18-1.369,8.113,2.491
			c0.064,0.084,0.129,0.167,0.195,0.249l55.577,68.514l20.428,65.599c1.302,4.179,5.17,7.025,9.546,7.025
			c4.377,0,8.245-2.847,9.546-7.026l18.803-60.408h89.48c5.13,0,9.303,4.173,9.303,9.303c0,4.586-3.422,8.544-7.96,9.206
			l-72.637,10.589C160.429,225.827,156.786,230.041,156.787,235.005z M335.211,315.043c0,0.022,0.003,0.043,0.003,0.065v107.453
			l-75.345-30.997c-2.436-1.003-5.169-1.003-7.605-0.002l-75.476,31.019V315.108c0.001-0.043-0.004-71.459-0.004-71.459l64.08-9.342
			c1.795-0.262,3.534-0.688,5.204-1.26v87.922c0,5.522,4.476,9.997,9.997,9.997c5.522,0,9.997-4.476,9.997-9.997v-87.88
			c1.631,0.551,3.327,0.964,5.077,1.219l64.08,9.342l-0.011,71.33v0.001C335.208,315.002,335.211,315.022,335.211,315.043z
			 M346.659,225.11l-72.637-10.589c-4.538-0.662-7.96-4.619-7.96-9.206c0-5.13,4.173-9.303,9.303-9.303h89.417l18.803,60.408
			c1.301,4.179,5.169,7.025,9.546,7.026c4.376,0,8.244-2.846,9.546-7.025l20.389-65.472l55.679-68.64
			c0.066-0.082,0.131-0.165,0.195-0.249c2.934-3.86,6.952-2.883,8.113-2.491c1.162,0.392,4.952,2.045,4.952,6.894
			c0,1.255-0.327,2.495-0.946,3.586l-58.576,103.358c-0.852,1.504-1.3,3.203-1.3,4.931l0.011,66.645h-75.99l0.011-69.978
			C355.216,230.04,351.573,225.826,346.659,225.11z"/>
	</g>
</g>
<g>
	<g>
		<path d="M263.136,354.903c-1.859-1.86-4.44-2.929-7.068-2.929c-2.639,0-5.209,1.07-7.068,2.929
			c-1.87,1.859-2.929,4.439-2.929,7.068s1.06,5.209,2.929,7.068c1.86,1.859,4.439,2.929,7.068,2.929s5.209-1.07,7.068-2.929
			c1.86-1.86,2.929-4.439,2.929-7.068S264.996,356.762,263.136,354.903z"/>
	</g>
</g>
<g>
</g>
<g>
</g>
<g>
</g>
<g>
</g>
<g>
</g>
<g>
</g>
<g>
</g>
<g>
</g>
<g>
</g>
<g>
</g>
<g>
</g>
<g>
</g>
<g>
</g>
<g>
</g>
<g>
</g>
</svg>
