<?xml version="1.0" encoding="iso-8859-1"?>
<!-- Generator: Adobe Illustrator 19.0.0, SVG Export Plug-In . SVG Version: 6.00 Build 0)  -->
<svg version="1.1" id="Layer_1" xmlns="http://www.w3.org/2000/svg" xmlns:xlink="http://www.w3.org/1999/xlink" x="0px" y="0px"
	 viewBox="0 0 502 502" style="enable-background:new 0 0 502 502;" xml:space="preserve">
<g>
	<g>
		<g>
			<path d="M445.317,143.126H56.683C25.428,143.126,0,117.698,0,86.443C0,55.188,25.428,29.76,56.683,29.76h388.635
				C476.572,29.76,502,55.188,502,86.443C502,117.698,476.572,143.126,445.317,143.126z M56.683,49.76
				C36.456,49.76,20,66.216,20,86.443s16.456,36.683,36.683,36.683h388.635c20.227,0,36.683-16.456,36.683-36.683
				S465.544,49.76,445.317,49.76H56.683z"/>
		</g>
	</g>
	<g>
		<g>
			<path d="M445.317,307.683H56.683C25.428,307.683,0,282.255,0,251s25.428-56.683,56.683-56.683h388.635
				C476.572,194.317,502,219.745,502,251S476.572,307.683,445.317,307.683z M56.683,214.317C36.456,214.317,20,230.773,20,251
				s16.456,36.683,36.683,36.683h388.635C465.544,287.683,482,271.227,482,251s-16.456-36.683-36.683-36.683H56.683z"/>
		</g>
	</g>
	<g>
		<g>
			<path d="M445.317,472.24H56.683C25.428,472.24,0,446.812,0,415.557c0-31.255,25.428-56.683,56.683-56.683h388.635
				c31.255,0,56.683,25.428,56.683,56.683C502,446.812,476.572,472.24,445.317,472.24z M56.683,378.874
				C36.456,378.874,20,395.33,20,415.557s16.456,36.683,36.683,36.683h388.635c20.227,0,36.683-16.456,36.683-36.683
				s-16.456-36.683-36.683-36.683H56.683z"/>
		</g>
	</g>
	<g>
		<path d="M230.576,87.106H57.85c-5.523,0-10-4.477-10-10s4.477-10,10-10h172.726c5.523,0,10,4.477,10,10
			S236.099,87.106,230.576,87.106z"/>
	</g>
	<g>
		<path d="M297.099,87.106h-19.84c-5.523,0-10-4.477-10-10s4.477-10,10-10h19.84c5.523,0,10,4.477,10,10
			S302.622,87.106,297.099,87.106z"/>
	</g>
</g>
<g>
</g>
<g>
</g>
<g>
</g>
<g>
</g>
<g>
</g>
<g>
</g>
<g>
</g>
<g>
</g>
<g>
</g>
<g>
</g>
<g>
</g>
<g>
</g>
<g>
</g>
<g>
</g>
<g>
</g>
</svg>
