<?xml version="1.0" encoding="UTF-8" standalone="no"?>
<svg
   xmlns:dc="http://purl.org/dc/elements/1.1/"
   xmlns:cc="http://creativecommons.org/ns#"
   xmlns:rdf="http://www.w3.org/1999/02/22-rdf-syntax-ns#"
   xmlns:svg="http://www.w3.org/2000/svg"
   xmlns="http://www.w3.org/2000/svg"
   xmlns:sodipodi="http://sodipodi.sourceforge.net/DTD/sodipodi-0.dtd"
   xmlns:inkscape="http://www.inkscape.org/namespaces/inkscape"
   viewBox="0 0 82.99736 82.997361"
   x="0px"
   y="0px"
   version="1.1"
   id="svg18"
   sodipodi:docname="noun_Functioning society_1022090.svg"
   width="82.99736"
   height="82.99736"
   inkscape:version="0.92.3 (2405546, 2018-03-11)">
  <metadata
     id="metadata24">
    <rdf:RDF>
      <cc:Work
         rdf:about="">
        <dc:format>image/svg+xml</dc:format>
        <dc:type
           rdf:resource="http://purl.org/dc/dcmitype/StillImage" />
        <dc:title>languageManifestoKit</dc:title>
      </cc:Work>
    </rdf:RDF>
  </metadata>
  <defs
     id="defs22" />
  <sodipodi:namedview
     pagecolor="#ffffff"
     bordercolor="#666666"
     borderopacity="1"
     objecttolerance="10"
     gridtolerance="10"
     guidetolerance="10"
     inkscape:pageopacity="0"
     inkscape:pageshadow="2"
     inkscape:window-width="1920"
     inkscape:window-height="1017"
     id="namedview20"
     showgrid="false"
     fit-margin-top="0"
     fit-margin-left="0"
     fit-margin-right="0"
     fit-margin-bottom="0"
     inkscape:zoom="3.776"
     inkscape:cx="79.707623"
     inkscape:cy="32.548007"
     inkscape:window-x="-8"
     inkscape:window-y="-8"
     inkscape:window-maximized="1"
     inkscape:current-layer="svg18" />
  <title
     id="title2">languageManifestoKit</title>
  <g
     id="g12"
     transform="translate(-8.2364901,-8.5896009)">
    <path
       d="M 16.5,45 V 35 a 3.34,3.34 0 0 1 3.5,-3.5 1.5,1.5 0 0 0 0,-3 6.32,6.32 0 0 0 -6.5,6.5 v 9.38 l -4.56,4.56 a 1.5,1.5 0 0 0 0,2.12 l 4.56,4.56 V 65 a 6.32,6.32 0 0 0 6.5,6.5 1.5,1.5 0 0 0 0,-3 A 3.34,3.34 0 0 1 16.5,65 V 55 A 1.5,1.5 0 0 0 16.06,53.94 L 12.12,50 16.06,46.06 A 1.5,1.5 0 0 0 16.5,45 Z"
       id="path4"
       inkscape:connector-curvature="0" />
    <path
       d="M 91.06,48.94 86.5,44.38 V 35 a 6.32,6.32 0 0 0 -6.5,-6.5 1.5,1.5 0 0 0 0,3 3.34,3.34 0 0 1 3.5,3.5 v 10 a 1.5,1.5 0 0 0 0.44,1.06 L 87.88,50 83.94,53.94 A 1.5,1.5 0 0 0 83.5,55 v 10 a 3.34,3.34 0 0 1 -3.5,3.5 1.5,1.5 0 0 0 0,3 6.32,6.32 0 0 0 6.5,-6.5 v -9.38 l 4.56,-4.56 a 1.5,1.5 0 0 0 0,-2.12 z"
       id="path6"
       inkscape:connector-curvature="0" />
    <path
       d="m 69.68,54.5 a 6.5,6.5 0 1 0 -9.35,0 11.51,11.51 0 0 0 -2.82,1.8 11.51,11.51 0 0 0 -2.82,-1.8 6.5,6.5 0 1 0 -9.35,0 11.51,11.51 0 0 0 -2.82,1.8 11.51,11.51 0 0 0 -2.82,-1.8 6.5,6.5 0 1 0 -9.35,0 A 11.51,11.51 0 0 0 23.5,65 1.5,1.5 0 0 0 25,66.5 H 75 A 1.5,1.5 0 0 0 76.5,65 11.51,11.51 0 0 0 69.68,54.5 Z m -31.07,9 h -12 a 8.49,8.49 0 0 1 13.87,-5 11.43,11.43 0 0 0 -1.87,5 z m 6.27,0 h -3.25 a 8.43,8.43 0 0 1 0.87,-2.5 8.49,8.49 0 0 1 15,0 8.43,8.43 0 0 1 0.87,2.48 H 44.88 Z M 46.5,50 A 3.5,3.5 0 1 1 50,53.5 3.5,3.5 0 0 1 46.5,50 Z m 13,8.53 a 8.49,8.49 0 0 1 13.87,5 h -12 a 11.43,11.43 0 0 0 -1.87,-5 z M 61.5,50 A 3.5,3.5 0 1 1 65,53.5 3.5,3.5 0 0 1 61.5,50 Z m -30,0 A 3.5,3.5 0 1 1 35,53.5 3.5,3.5 0 0 1 31.5,50 Z"
       id="path8"
       inkscape:connector-curvature="0" />
    <path
       d="M 50,41.5 A 6.5,6.5 0 1 0 43.5,35 6.51,6.51 0 0 0 50,41.5 Z m 0,-10 A 3.5,3.5 0 1 1 46.5,35 3.5,3.5 0 0 1 50,31.5 Z"
       id="path10"
       inkscape:connector-curvature="0" />
  </g>
</svg>
