<?xml version="1.0" encoding="iso-8859-1"?>
<!-- Generator: Adobe Illustrator 19.0.0, SVG Export Plug-In . SVG Version: 6.00 Build 0)  -->
<svg version="1.1" id="Capa_1" xmlns="http://www.w3.org/2000/svg" xmlns:xlink="http://www.w3.org/1999/xlink" x="0px" y="0px"
	 viewBox="0 0 512.001 512.001" style="enable-background:new 0 0 512.001 512.001;" xml:space="preserve">
<g>
	<g>
		<path d="M503.242,370.313l-24.937-24.937c-0.002-0.002-0.003-0.003-0.005-0.005s-0.003-0.003-0.005-0.005l-38.954-38.954
			c-0.002-0.002-0.003-0.003-0.005-0.005s-0.003-0.003-0.005-0.005l-71.781-71.781l109.22-109.22
			c6.966-6.966,10.802-16.227,10.802-26.078c0-9.851-3.836-19.112-10.802-26.078l-38.014-38.013
			c-6.966-6.966-16.227-10.802-26.078-10.802s-19.112,3.836-26.078,10.802L277.381,144.451l-71.828-71.828l-38.975-38.975
			c-0.001-0.001-0.002-0.002-0.003-0.003c-0.001-0.001-0.002-0.002-0.003-0.003L141.688,8.758
			c-11.659-11.659-30.629-11.657-42.286,0L8.758,99.402C3.11,105.05,0,112.559,0,120.546s3.11,15.496,8.758,21.143L144.45,277.382
			l-52.653,52.653c-0.84,0.84-1.522,1.822-2.018,2.901L25.34,473.402c-1.744,3.801-0.938,8.285,2.018,11.241
			c1.917,1.917,4.476,2.93,7.074,2.93c1.409,0,2.83-0.298,4.167-0.911l140.467-64.439c1.079-0.495,2.062-1.179,2.901-2.018
			l52.653-52.653l42.992,42.992c1.953,1.953,4.512,2.929,7.071,2.929s5.118-0.976,7.071-2.929c3.905-3.905,3.905-10.237,0-14.143
			l-42.992-42.992l104.645-104.646l25.751,25.751l-9.56,9.56c-3.905,3.905-3.905,10.237,0,14.143
			c1.953,1.953,4.512,2.929,7.071,2.929s5.118-0.976,7.071-2.929l9.56-9.56l24.822,24.822l-28.567,28.567
			c-3.905,3.905-3.905,10.237,0,14.142c1.953,1.953,4.512,2.929,7.071,2.929c2.559,0,5.118-0.977,7.071-2.929l28.567-28.567
			l24.822,24.822l-9.56,9.56c-3.905,3.905-3.905,10.237,0,14.143c1.953,1.953,4.512,2.929,7.071,2.929s5.118-0.976,7.071-2.929
			l9.56-9.56l17.871,17.871c1.87,1.87,2.899,4.356,2.899,7c0,2.644-1.029,5.131-2.9,7.001l-90.642,90.643
			c-3.858,3.86-10.142,3.861-14.002,0l-36.047-36.047c-3.906-3.905-10.236-3.905-14.143,0c-3.905,3.905-3.905,10.237,0,14.143
			l36.048,36.047c5.829,5.829,13.486,8.743,21.143,8.743c7.657,0,15.314-2.915,21.144-8.744l90.644-90.644
			c5.647-5.647,8.758-13.157,8.758-21.144S508.89,375.961,503.242,370.313z M400.742,49.374c3.188-3.188,7.427-4.944,11.936-4.944
			c4.509,0,8.747,1.756,11.936,4.944l38.014,38.014c6.582,6.581,6.582,17.29,0,23.871l-29.195,29.195l-61.885-61.885L400.742,49.374
			z M22.899,127.546c-1.87-1.87-2.899-4.356-2.899-7s1.029-5.131,2.9-7.001l90.644-90.644c3.858-3.859,10.142-3.861,14.002,0
			l17.813,17.813l-9.561,9.56c-3.905,3.905-3.905,10.237,0,14.142c1.953,1.953,4.512,2.929,7.071,2.929
			c2.559,0,5.118-0.977,7.071-2.929l9.561-9.56l24.836,24.837L155.77,108.26c-3.905,3.905-3.905,10.237,0,14.142
			c1.953,1.953,4.512,2.929,7.071,2.929s5.118-0.977,7.071-2.929l28.566-28.567l24.822,24.822l-9.56,9.56
			c-3.905,3.905-3.905,10.237,0,14.143c1.953,1.953,4.512,2.929,7.071,2.929c2.559,0,5.118-0.976,7.071-2.929l9.56-9.56
			l25.793,25.793L158.592,263.24L22.899,127.546z M54.755,457.245l13.695-29.851l16.157,16.157L54.755,457.245z M103.997,434.656
			l-26.652-26.652l24.618-53.661l55.695,55.696L103.997,434.656z M174.895,398.991l-61.884-61.885L357.405,92.711l33.24,33.24
			l-82.418,82.419c-3.905,3.905-3.905,10.237,0,14.142c1.953,1.953,4.512,2.929,7.071,2.929s5.118-0.977,7.071-2.929l82.418-82.418
			l14.502,14.503L174.895,398.991z"/>
	</g>
</g>
<g>
	<g>
		<path d="M322.37,427.011c-1.86-1.86-4.44-2.92-7.07-2.92c-2.64,0-5.21,1.06-7.07,2.92c-1.859,1.87-2.93,4.44-2.93,7.08
			c0,2.63,1.07,5.21,2.93,7.07s4.44,2.93,7.07,2.93s5.21-1.07,7.07-2.93c1.859-1.86,2.93-4.44,2.93-7.07
			C325.3,431.451,324.23,428.881,322.37,427.011z"/>
	</g>
</g>
<g>
	<g>
		<path d="M295.63,235.111c-1.861-1.86-4.441-2.93-7.07-2.93c-2.64,0-5.21,1.07-7.069,2.93c-1.87,1.86-2.931,4.44-2.931,7.07
			s1.061,5.21,2.931,7.07c1.859,1.86,4.43,2.93,7.069,2.93c2.63,0,5.21-1.07,7.07-2.93s2.93-4.44,2.93-7.07
			S297.491,236.971,295.63,235.111z"/>
	</g>
</g>
<g>
</g>
<g>
</g>
<g>
</g>
<g>
</g>
<g>
</g>
<g>
</g>
<g>
</g>
<g>
</g>
<g>
</g>
<g>
</g>
<g>
</g>
<g>
</g>
<g>
</g>
<g>
</g>
<g>
</g>
</svg>
