<svg height="512pt" viewBox="-47 0 511 512" width="512pt" xmlns="http://www.w3.org/2000/svg"><path d="m150.933594 110.324219h98.695312c5.523438 0 10-4.476563 10-10 0-5.523438-4.476562-10-10-10h-98.695312c-5.523438 0-10 4.476562-10 10 0 5.523437 4.476562 10 10 10zm0 0"/><path d="m150.933594 214.109375h138.695312c5.523438 0 10-4.476563 10-10s-4.476562-10-10-10h-138.695312c-5.523438 0-10 4.476563-10 10s4.476562 10 10 10zm0 0"/><path d="m289.632812 401.675781h-138.699218c-5.523438 0-10 4.476563-10 10 0 5.523438 4.476562 10 10 10h138.695312c5.523438 0 10-4.476562 10-10 0-5.523437-4.476562-10-9.996094-10zm0 0"/><path d="m289.632812 110.324219c5.519532 0 10-4.476563 10-10 0-5.523438-4.480468-10-10-10h-.027343c-5.523438 0-9.988281 4.476562-9.988281 10 0 5.523437 4.492187 10 10.015624 10zm0 0"/><path d="m412.613281 431.605469-49.246093-88.429688v-305.410156c0-20.824219-16.941407-37.765625-37.765626-37.765625h-272.679687c-20.828125 0-37.769531 16.941406-37.769531 37.765625v52.558594h-4.652344c-5.523438 0-10 4.476562-10 10 0 5.523437 4.476562 10 10 10h4.652344v83.785156h-4.652344c-5.523438 0-10 4.476563-10 10s4.476562 10 10 10h4.652344v83.78125h-4.652344c-5.523438 0-10 4.476563-10 10s4.476562 10 10 10h4.652344v83.785156h-4.652344c-5.523438 0-10 4.476563-10 10 0 5.523438 4.476562 10 10 10h4.652344v52.558594c0 20.824219 16.941406 37.765625 37.769531 37.765625h272.679687c13.847657 0 26.058594-7.367188 32.640626-18.695312 1.40625.5625 2.847656 1.058593 4.324218 1.480468 3.960938 1.128906 7.996094 1.6875 12.003906 1.6875 7.328126 0 14.578126-1.867187 21.160157-5.535156 10.179687-5.667969 17.542969-14.960938 20.730469-26.167969 3.191406-11.207031 1.824218-22.984375-3.847657-33.164062zm-149.972656-131.089844 41.273437-22.988281 40.648438 72.992187c.011719.015625.019531.03125.03125.050781l30.175781 54.183594-41.277343 22.988282zm-11.421875-29.863281 5.832031-28.722656 27.488281 10.164062c4.023438 1.488281 7.40625 4.3125 9.617188 7.976562l-41.222656 22.957032c-1.949219-3.808594-2.570313-8.171875-1.714844-12.375zm74.382812 221.347656h-272.679687c-9.800781 0-17.769531-7.96875-17.769531-17.765625v-52.558594h10.621094c4.257812 13.519531 16.90625 23.347657 31.8125 23.347657 18.386718 0 33.347656-14.957032 33.347656-33.347657 0-18.386719-14.960938-33.347656-33.347656-33.347656-14.90625 0-27.554688 9.832031-31.8125 23.347656h-10.621094v-83.785156h10.621094c4.257812 13.519531 16.90625 23.347656 31.8125 23.347656 18.386718 0 33.347656-14.957031 33.347656-33.347656 0-18.386719-14.960938-33.34375-33.347656-33.34375-14.902344 0-27.554688 9.828125-31.8125 23.34375h-10.621094v-83.78125h10.621094c4.257812 13.515625 16.90625 23.34375 31.8125 23.34375 18.386718 0 33.347656-14.957031 33.347656-33.34375 0-18.390625-14.960938-33.347656-33.347656-33.347656-14.902344 0-27.554688 9.828125-31.8125 23.347656h-10.621094v-83.785156h10.621094c4.257812 13.515625 16.90625 23.347656 31.8125 23.347656 18.386718 0 33.347656-14.960937 33.347656-33.347656s-14.960938-33.347657-33.347656-33.347657c-14.902344 0-27.554688 9.828126-31.8125 23.347657h-10.621094v-52.558594c0-9.796875 7.96875-17.765625 17.769531-17.765625h272.679687c9.796876 0 17.765626 7.96875 17.765626 17.765625v269.496094l-31.390626-56.367188c-4.515624-8.105469-11.796874-14.34375-20.5-17.558593l-29-10.722657c-5.105468-1.886719-10.761718-1.453125-15.515624 1.199219-4.757813 2.648438-8.105469 7.226562-9.191407 12.558594l-6.152343 30.296875c-1.847657 9.09375-.378907 18.570312 4.136718 26.675781l2.53125 4.546875h-87.351562c-5.523438 0-10 4.476563-10 10s4.476562 10 10 10h98.492187l71.460938 128.3125v.003906l15.503906 27.839844c.003906 0 .003906.003906.003906.003906.011719.023438.027344.046875.039063.070313.359375.640625.730468 1.269531 1.117187 1.886718.09375.148438.195313.292969.292969.441407.320312.496093.644531.992187.980469 1.472656.09375.132813.195312.261719.289062.394531.355469.496094.714844.984375 1.089844 1.460938.085937.109375.171875.210937.257813.320312.398437.5.808593.992188 1.230468 1.476563.023438.027343.046875.058593.070313.085937-2.820313 6.195313-9.03125 10.339844-16.160157 10.339844zm-257.464843-89.738281c2.417969-2.425781 5.761719-3.933594 9.449219-3.933594 7.359374 0 13.347656 5.988281 13.347656 13.347656s-5.988282 13.347657-13.347656 13.347657c-3.6875 0-7.03125-1.507813-9.449219-3.933594 3.871093-1.378906 6.648437-5.066406 6.648437-9.414063 0-4.347656-2.777344-8.035156-6.648437-9.414062zm0-103.78125c2.417969-2.429688 5.761719-3.933594 9.449219-3.933594 7.359374 0 13.347656 5.984375 13.347656 13.34375 0 7.363281-5.988282 13.347656-13.347656 13.347656-3.6875 0-7.03125-1.503906-9.449219-3.933593 3.871093-1.378907 6.648437-5.066407 6.648437-9.414063 0-4.34375-2.777344-8.035156-6.648437-9.410156zm0-103.785157c2.417969-2.429687 5.761719-3.933593 9.449219-3.933593 7.359374 0 13.347656 5.984375 13.347656 13.347656 0 7.359375-5.988282 13.34375-13.347656 13.34375-3.6875 0-7.03125-1.503906-9.449219-3.933594 3.871093-1.375 6.648437-5.066406 6.648437-9.410156 0-4.347656-2.777344-8.035156-6.648437-9.414063zm0-103.785156c2.417969-2.429687 5.761719-3.933594 9.449219-3.933594 7.359374 0 13.347656 5.988282 13.347656 13.347657s-5.988282 13.347656-13.347656 13.347656c-3.691407 0-7.03125-1.507813-9.449219-3.9375 3.871093-1.375 6.648437-5.066406 6.648437-9.410156 0-4.347657-2.777344-8.035157-6.648437-9.414063zm329.089843 368.386719c-1.730468 6.066406-5.714843 11.101563-11.230468 14.171875-5.511719 3.066406-11.886719 3.808594-17.957032 2.082031-3.769531-1.074219-7.136718-3.019531-9.886718-5.660156-.035156-.035156-.074219-.078125-.113282-.113281-.464843-.453125-.90625-.929688-1.335937-1.421875-.09375-.109375-.1875-.210938-.277344-.320313-.425781-.507812-.828125-1.039062-1.214843-1.582031-.078126-.113281-.15625-.230469-.230469-.34375-.394531-.578125-.769531-1.167969-1.113281-1.785156l-10.640626-19.109375 41.273438-22.988282 10.640625 19.109376c3.070313 5.511718 3.8125 11.890624 2.085937 17.960937zm0 0"/></svg>